<svg width="14" height="13" fill="none" xmlns="http://www.w3.org/2000/svg"><path opacity=".6" d="M1.744 12.62H4.9a.762.762 0 0 0 .528-.21l5.15-5.032 2.112-2.018a.726.726 0 0 0 .22-.515.712.712 0 0 0-.22-.516L9.534 1.215A.745.745 0 0 0 9.006 1a.76.76 0 0 0-.528.215L6.38 3.269 1.216 8.3A.725.725 0 0 0 1 8.816v3.078c0 .192.078.377.218.513s.329.213.526.213Zm7.262-9.866 2.106 2.054-1.057 1.031L7.95 3.785l1.056-1.031Zm-6.518 6.36L6.9 4.807l2.106 2.055-4.412 4.305H2.488V9.113Z" fill="#4C6EF5" stroke="#fff" stroke-width=".4"/></svg>