<svg xmlns="http://www.w3.org/2000/svg" width="19" height="18" fill="none"><path fill="#1D1929" stroke="#fff" stroke-width=".4" d="M1.894 17.62h4.513a1.087 1.087 0 0 0 .755-.301l7.365-7.196 3.022-2.887a1.037 1.037 0 0 0 .315-.737 1.015 1.015 0 0 0-.315-.737l-4.512-4.455A1.065 1.065 0 0 0 12.28 1a1.086 1.086 0 0 0-.755.307L8.524 4.246 1.14 11.442a1.037 1.037 0 0 0-.309.737v4.403c0 .275.112.54.312.734.2.195.47.304.752.304ZM12.281 3.508l3.012 2.94-1.511 1.474-3.012-2.939 1.511-1.474ZM2.96 12.605l6.31-6.158 3.012 2.939-6.31 6.157H2.958v-2.938Z"/></svg>